<svg width="24" height="24" viewBox="0 0 24 24" fill="none" xmlns="http://www.w3.org/2000/svg">
<mask id="mask0_917_6522" style="mask-type:alpha" maskUnits="userSpaceOnUse" x="0" y="0" width="24" height="24">
<rect width="24" height="24" fill="white"/>
</mask>
<g mask="url(#mask0_917_6522)">
<path d="M10.6 16.0495L17.65 8.99951L16.25 7.59951L10.6 13.2495L7.75 10.3995L6.35 11.7995L10.6 16.0495ZM5 20.9995C4.45 20.9995 3.97917 20.8037 3.5875 20.412C3.19583 20.0203 3 19.5495 3 18.9995V4.99951C3 4.44951 3.19583 3.97868 3.5875 3.58701C3.97917 3.19535 4.45 2.99951 5 2.99951H9.2C9.41667 2.39951 9.77917 1.91618 10.2875 1.54951C10.7958 1.18285 11.3667 0.999512 12 0.999512C12.6333 0.999512 13.2042 1.18285 13.7125 1.54951C14.2208 1.91618 14.5833 2.39951 14.8 2.99951H19C19.55 2.99951 20.0208 3.19535 20.4125 3.58701C20.8042 3.97868 21 4.44951 21 4.99951V18.9995C21 19.5495 20.8042 20.0203 20.4125 20.412C20.0208 20.8037 19.55 20.9995 19 20.9995H5ZM5 18.9995H19V4.99951H5V18.9995ZM12 4.24951C12.2167 4.24951 12.3958 4.17868 12.5375 4.03701C12.6792 3.89535 12.75 3.71618 12.75 3.49951C12.75 3.28285 12.6792 3.10368 12.5375 2.96201C12.3958 2.82035 12.2167 2.74951 12 2.74951C11.7833 2.74951 11.6042 2.82035 11.4625 2.96201C11.3208 3.10368 11.25 3.28285 11.25 3.49951C11.25 3.71618 11.3208 3.89535 11.4625 4.03701C11.6042 4.17868 11.7833 4.24951 12 4.24951Z" fill="#A4A7AE"/>
</g>
</svg>
