<svg width="96" height="59" viewBox="0 0 96 59" fill="none" xmlns="http://www.w3.org/2000/svg">
<path d="M76.66 17.1517L76.5447 17.1184L76.5616 17.0601L76.6769 17.0937L76.66 17.1517ZM76.8678 16.4859L76.754 16.4475C76.824 16.2403 76.8981 16.0371 76.974 15.8437L77.0856 15.8876C77.0105 16.0792 76.9372 16.2805 76.8678 16.4859ZM77.3342 15.3018L77.2251 15.2518C77.3158 15.0536 77.4122 14.8598 77.5115 14.6755L77.6172 14.7326C77.5191 14.9145 77.4239 15.106 77.3342 15.3018ZM77.9389 14.1851L77.838 14.1204C77.956 13.9361 78.0805 13.7586 78.2083 13.5927L78.3033 13.666C78.1776 13.8291 78.055 14.0037 77.9389 14.1851ZM83.1788 13.3062C83.0392 13.3062 82.8981 13.2805 82.7706 13.2319L82.8134 13.1197C82.9983 13.1904 83.215 13.2054 83.408 13.1601L83.4352 13.277C83.3522 13.2964 83.2659 13.3062 83.1788 13.3062ZM78.7133 13.183L78.6258 13.1008C78.7748 12.942 78.9317 12.7917 79.0917 12.6538L79.1701 12.7448C79.0131 12.8799 78.8594 13.0273 78.7133 13.183ZM83.997 12.8992L83.9422 12.8734L83.8948 12.8363C83.9739 12.7145 84.0131 12.5774 84.0131 12.4262C84.0131 12.3751 84.0084 12.3226 83.9994 12.2702L84.1175 12.2496C84.1278 12.3088 84.1331 12.3681 84.1331 12.4262C84.1331 12.601 84.0874 12.7601 83.997 12.8992ZM82.2495 12.8184C82.1258 12.647 82.0364 12.4368 81.9911 12.2104L82.1089 12.1868C82.1508 12.3965 82.2331 12.5906 82.3467 12.7482L82.2495 12.8184ZM79.6717 12.3594L79.6042 12.2603C79.7809 12.1397 79.967 12.0274 80.1572 11.9266L80.2134 12.0327C80.027 12.1314 79.8448 12.2414 79.6717 12.3594ZM80.7875 11.767L80.7428 11.6556C80.9388 11.5773 81.1441 11.5065 81.3532 11.4452L81.3869 11.5604C81.1814 11.6206 80.9797 11.6901 80.7875 11.767ZM83.7369 11.7303C83.6472 11.6268 83.5398 11.5401 83.4266 11.4799C83.3664 11.448 83.3025 11.4206 83.2366 11.3984L83.2747 11.2846C83.3469 11.3089 83.417 11.339 83.4828 11.374C83.609 11.4411 83.7283 11.5372 83.8275 11.6517L83.7369 11.7303ZM82.1 11.5715L81.9816 11.5528C81.9892 11.5039 81.9986 11.4551 82.0097 11.406C82.0075 11.4064 82.0053 11.4069 82.0031 11.4074L81.9788 11.2899C82.0005 11.2853 82.0217 11.281 82.0427 11.2769C82.0753 11.1628 82.117 11.0467 82.1688 10.927L82.2791 10.9745C82.238 11.0694 82.2036 11.1617 82.1753 11.2523C82.3416 11.2236 82.4867 11.2074 82.6219 11.2023L82.6266 11.3221C82.4816 11.3278 82.3244 11.3466 82.1392 11.3806C82.1231 11.4447 82.11 11.5082 82.1 11.5715ZM82.5764 10.419L82.4748 10.3551L82.5264 10.2745C82.6256 10.122 82.7328 9.97121 82.8453 9.82621L82.94 9.89981C82.8297 10.0422 82.7244 10.1902 82.627 10.3399L82.5764 10.419ZM83.352 9.41801L83.2645 9.33581C83.4106 9.18049 83.5664 9.02941 83.728 8.88669L83.8073 8.97653C83.6488 9.11685 83.4955 9.26545 83.352 9.41801ZM84.3011 8.57833L84.2302 8.48161C84.4024 8.35505 84.5828 8.23441 84.7666 8.12309L84.8288 8.22573C84.6481 8.33521 84.4705 8.45381 84.3011 8.57833ZM85.3855 7.92121L85.3327 7.81357C85.5253 7.71889 85.7242 7.63201 85.9238 7.55513L85.9669 7.66717C85.7706 7.74269 85.575 7.82817 85.3855 7.92121ZM86.5683 7.46605L86.5355 7.35057C86.7422 7.29157 86.9536 7.24173 87.1634 7.20229L87.1856 7.32025C86.9792 7.35905 86.7716 7.40801 86.5683 7.46605ZM87.8136 7.23269L87.8027 7.11317C88.0038 7.09481 88.2069 7.08545 88.4066 7.08545L88.4477 7.08553L88.447 7.20553L88.4066 7.20545C88.2105 7.20545 88.0111 7.21457 87.8136 7.23269Z" fill="#708CD5"/>
<path d="M92.8846 8.67105H89.3021C88.3915 8.67105 87.6533 7.93289 87.6533 7.02229C87.6533 6.11173 88.3915 5.37354 89.3021 5.37354H92.8846C93.7952 5.37354 94.5334 6.11169 94.5334 7.02229C94.5333 7.93289 93.7952 8.67105 92.8846 8.67105Z" fill="#D3DFFF"/>
<path d="M89.4733 7.44254C89.7053 7.44254 89.8933 7.2545 89.8933 7.02254C89.8933 6.79058 89.7053 6.60254 89.4733 6.60254C89.2414 6.60254 89.0533 6.79058 89.0533 7.02254C89.0533 7.2545 89.2414 7.44254 89.4733 7.44254Z" fill="white"/>
<path d="M91.0933 7.44254C91.3253 7.44254 91.5133 7.2545 91.5133 7.02254C91.5133 6.79058 91.3253 6.60254 91.0933 6.60254C90.8614 6.60254 90.6733 6.79058 90.6733 7.02254C90.6733 7.2545 90.8614 7.44254 91.0933 7.44254Z" fill="white"/>
<path d="M92.7133 7.44254C92.9453 7.44254 93.1333 7.2545 93.1333 7.02254C93.1333 6.79058 92.9453 6.60254 92.7133 6.60254C92.4814 6.60254 92.2933 6.79058 92.2933 7.02254C92.2933 7.2545 92.4814 7.44254 92.7133 7.44254Z" fill="white"/>
<path d="M14.0217 32.8046C13.845 32.6864 13.6678 32.5677 13.4903 32.448L13.5574 32.3486C13.7347 32.468 13.9119 32.5868 14.0885 32.7049L14.0217 32.8046ZM12.9606 32.0886C12.7847 31.9683 12.6089 31.8472 12.4334 31.7249L12.502 31.6264C12.6771 31.7485 12.8526 31.8696 13.0282 31.9896L12.9606 32.0886ZM11.91 31.3552C11.7363 31.2308 11.5633 31.1054 11.3913 30.9783L11.4627 30.8818C11.6341 31.0085 11.8066 31.1336 11.9799 31.2577L11.91 31.3552ZM10.8789 30.5932C10.7089 30.4628 10.5403 30.3313 10.3735 30.1978L10.4485 30.1041C10.6147 30.2369 10.7825 30.3682 10.9518 30.4978L10.8789 30.5932ZM9.87707 29.7913C9.71287 29.6535 9.55075 29.5138 9.39091 29.3719L9.47059 29.2822C9.62951 29.4232 9.79083 29.5622 9.95427 29.6994L9.87707 29.7913ZM8.91699 28.9386C8.76075 28.7913 8.60607 28.6404 8.45723 28.4902L8.54239 28.4058C8.69027 28.555 8.84403 28.7049 8.99935 28.8515L8.91699 28.9386ZM8.01379 28.0252C7.86779 27.866 7.72495 27.7036 7.58935 27.5426L7.68107 27.4654C7.81567 27.625 7.95739 27.7861 8.10223 27.944L8.01379 28.0252ZM7.18643 27.0414C7.05519 26.87 6.92783 26.6951 6.80815 26.5215L6.90691 26.4534C7.02551 26.6254 7.15159 26.7986 7.28175 26.9684L7.18643 27.0414ZM6.45731 25.9828C6.34459 25.7988 6.23675 25.6112 6.13699 25.4253L6.24279 25.3686C6.34147 25.5525 6.44803 25.738 6.55967 25.9201L6.45731 25.9828ZM5.85011 24.85C5.76019 24.655 5.67567 24.4558 5.59895 24.2578L5.71083 24.2143C5.78667 24.4101 5.87019 24.607 5.95903 24.7997L5.85011 24.85ZM5.38651 23.65C5.32307 23.4465 5.26567 23.2375 5.21595 23.029L5.33267 23.0012C5.38175 23.2071 5.43847 23.4134 5.50103 23.6143L5.38651 23.65ZM5.08767 22.398C5.05203 22.1875 5.02307 21.9728 5.00135 21.76L5.12071 21.7478C5.14211 21.9581 5.17087 22.1701 5.20595 22.378L5.08767 22.398ZM4.95675 21.1178C4.95207 20.9931 4.94979 20.8684 4.94971 20.7436C4.94971 20.6537 4.95087 20.5639 4.95331 20.474L5.07331 20.4773C5.07087 20.5661 5.06971 20.6548 5.06971 20.7436C5.06979 20.8668 5.07207 20.9901 5.07659 21.1132L4.95675 21.1178ZM5.11043 19.8422L4.99091 19.8315C5.01011 19.6191 5.03639 19.4042 5.06903 19.1926L5.18763 19.2108C5.15535 19.42 5.12939 19.6324 5.11043 19.8422ZM5.30479 18.5856L5.18759 18.5598C5.23367 18.3509 5.28703 18.141 5.34619 17.9359L5.46151 17.9692C5.40299 18.1718 5.35035 18.3792 5.30479 18.5856ZM5.65755 17.3641L5.54459 17.3235C5.61723 17.1218 5.69723 16.9205 5.78247 16.7253L5.89247 16.7732C5.80831 16.9661 5.72923 17.1649 5.65755 17.3641ZM6.16611 16.1993L6.05955 16.144C6.15847 15.9533 6.26479 15.7645 6.37539 15.5828L6.47791 15.6452C6.36871 15.8246 6.26379 16.011 6.16611 16.1993ZM6.82731 15.1141L6.72935 15.0448C6.85255 14.8709 6.98379 14.6985 7.11943 14.5323L7.21239 14.6082C7.07839 14.7722 6.94887 14.9425 6.82731 15.1141ZM7.63075 14.1294L7.54311 14.0476C7.68843 13.892 7.84139 13.7387 7.99779 13.5918L8.07999 13.6794C7.92543 13.8244 7.77423 13.9758 7.63075 14.1294ZM8.55759 13.2594L8.48135 13.1667C8.64595 13.0311 8.81743 12.8988 8.99103 12.7736L9.06119 12.871C8.88971 12.9946 8.72027 13.1254 8.55759 13.2594ZM9.58863 12.5151L9.52471 12.4136C9.70559 12.2997 9.89243 12.1903 10.0802 12.0881L10.1375 12.1936C9.95207 12.2945 9.76735 12.4027 9.58863 12.5151ZM10.7056 11.9074L10.6549 11.7986C10.8495 11.7082 11.0489 11.6232 11.2472 11.5461L11.2907 11.658C11.0947 11.7342 10.8978 11.8181 10.7056 11.9074ZM22.0505 11.695H22.0281V11.575H22.0505C22.2613 11.575 22.4678 11.5692 22.6643 11.5577L22.6714 11.6775C22.4725 11.6892 22.2635 11.695 22.0505 11.695ZM21.3854 11.6777C21.1803 11.6674 20.9706 11.6528 20.7443 11.633L20.7547 11.5134C20.9796 11.5331 21.1879 11.5476 21.3914 11.5579L21.3854 11.6777ZM23.3127 11.6172L23.2969 11.4983C23.5105 11.4701 23.7209 11.4334 23.9223 11.3893L23.9479 11.5065C23.7434 11.5514 23.5296 11.5886 23.3127 11.6172ZM20.1054 11.5677C19.8939 11.5433 19.6817 11.5166 19.4689 11.4883L19.4847 11.3694C19.6968 11.3975 19.9083 11.4242 20.1191 11.4485L20.1054 11.5677ZM11.8905 11.4468L11.8544 11.3324C12.0585 11.2679 12.2671 11.2094 12.4743 11.1585L12.5029 11.275C12.2981 11.3253 12.0921 11.3831 11.8905 11.4468ZM18.8341 11.4006L18.2003 11.3101L18.2171 11.1914L18.851 11.2818L18.8341 11.4006ZM24.5712 11.3389L24.5345 11.2247C24.7364 11.1598 24.9358 11.0843 25.1269 11.0005L25.175 11.1104C24.9803 11.1958 24.7771 11.2727 24.5712 11.3389ZM17.5667 11.222C17.3553 11.1937 17.1439 11.1666 16.9327 11.1418L16.9467 11.0226C17.1586 11.0475 17.3707 11.0746 17.5826 11.1031L17.5667 11.222ZM13.1251 11.1443L13.1043 11.0262C13.3161 10.989 13.5306 10.9589 13.7419 10.9366L13.7546 11.0559C13.5459 11.0779 13.3341 11.1077 13.1251 11.1443ZM16.2979 11.0747C16.073 11.054 15.865 11.0382 15.662 11.0265L15.6689 10.9067C15.8733 10.9185 16.0826 10.9344 16.3089 10.9552L16.2979 11.0747ZM14.3889 11.0105L14.3843 10.8907C14.5978 10.8822 14.8121 10.8801 15.0271 10.8831L15.0253 11.0031C14.8127 11 14.6003 11.0022 14.3889 11.0105Z" fill="#708CD5"/>
<path d="M66.5176 46.2175L66.5173 46.0975C66.7267 46.0967 66.9407 46.09 67.1534 46.0774L67.1606 46.197C66.9456 46.2098 66.7293 46.2167 66.5176 46.2175ZM65.8745 46.2009C65.662 46.1895 65.4462 46.1712 65.2334 46.147L65.2472 46.0276C65.4575 46.0517 65.6708 46.0698 65.8811 46.0812L65.8745 46.2009ZM67.8015 46.1406L67.7878 46.0216C67.9959 45.9974 68.2079 45.967 68.4183 45.9312L68.4383 46.0497C68.2259 46.0858 68.0117 46.1164 67.8015 46.1406ZM64.5965 46.0542C64.3851 46.0167 64.1731 45.9723 63.9665 45.922L63.995 45.8054C64.1991 45.8551 64.4086 45.899 64.6175 45.9361L64.5965 46.0542ZM69.0687 45.9247L69.0425 45.8075C69.1169 45.7908 69.1913 45.7731 69.2658 45.755C69.3975 45.7224 69.5291 45.6879 69.66 45.6515L69.6922 45.7672C69.56 45.8039 69.4275 45.8387 69.2944 45.8715C69.2191 45.89 69.1441 45.9076 69.0687 45.9247ZM63.3462 45.7497C63.1411 45.6855 62.9365 45.6139 62.7383 45.5372L62.7817 45.4253C62.9775 45.5011 63.1795 45.5717 63.3822 45.6353L63.3462 45.7497ZM70.307 45.5811L70.2698 45.467C70.4697 45.4015 70.6719 45.3304 70.8709 45.2558L70.9131 45.368C70.7125 45.4434 70.5086 45.5152 70.307 45.5811ZM62.1458 45.2847C61.9525 45.1944 61.7594 45.0959 61.5719 44.9922L61.63 44.8872C61.8151 44.9897 62.0058 45.0867 62.1967 45.1759L62.1458 45.2847ZM71.5095 45.13L71.4629 45.0194C71.6557 44.9381 71.8517 44.8509 72.0455 44.7603L72.0964 44.869C71.9012 44.9603 71.7037 45.0481 71.5095 45.13ZM61.0191 44.6611C60.8395 44.5448 60.6617 44.4208 60.4906 44.2925L60.5625 44.1966C60.7316 44.3231 60.907 44.4456 61.0844 44.5605L61.0191 44.6611ZM72.6733 44.5874L72.6186 44.4805C72.805 44.3855 72.9945 44.2847 73.182 44.1813L73.2401 44.2863C73.0514 44.3905 72.8606 44.4917 72.6733 44.5874ZM73.7972 43.9675L73.7359 43.8644C73.9186 43.7561 74.1001 43.645 74.2806 43.5313L74.3447 43.6328C74.1633 43.7472 73.9808 43.8589 73.7972 43.9675ZM59.9889 43.8888C59.8283 43.7498 59.6698 43.602 59.5177 43.4492L59.6027 43.3646C59.7528 43.5152 59.9091 43.6611 60.0673 43.7982L59.9889 43.8888ZM74.8826 43.2836L74.8161 43.1839C74.9926 43.066 75.1684 42.9456 75.3429 42.8231L75.412 42.9212C75.2365 43.0444 75.0601 43.1653 74.8826 43.2836ZM59.0792 42.9775C58.9403 42.8174 58.8039 42.6491 58.6737 42.4774L58.7693 42.4048C58.8979 42.5744 59.0326 42.7406 59.1698 42.8988L59.0792 42.9775ZM75.9328 42.547L75.8619 42.4505C76.0329 42.3246 76.2033 42.1967 76.3727 42.0667L76.4458 42.162C76.2758 42.2924 76.1048 42.4208 75.9328 42.547ZM58.3011 41.9525C58.1826 41.7742 58.0684 41.5902 57.9612 41.4056L58.065 41.3453C58.1709 41.5278 58.2841 41.7098 58.4011 41.8862L58.3011 41.9525ZM76.9509 41.7675L76.8762 41.6734C77.0428 41.5411 77.2084 41.4069 77.3729 41.2714L77.4492 41.3639C77.2841 41.5 77.1181 41.6345 76.9509 41.7675ZM57.6543 40.8394C57.5587 40.65 57.4667 40.454 57.3811 40.2567L57.4911 40.2089C57.5759 40.4041 57.6669 40.598 57.7615 40.7853L57.6543 40.8394ZM57.1419 39.6592C57.0679 39.4581 56.9991 39.253 56.9372 39.0494L57.0519 39.0144C57.1131 39.2159 57.1812 39.4189 57.2544 39.618L57.1419 39.6592ZM56.7678 38.4284C56.7175 38.2208 56.6728 38.0089 56.635 37.7988L56.7531 37.7775C56.7905 37.9853 56.8347 38.1949 56.8843 38.4003L56.7678 38.4284ZM56.5398 37.1622C56.5145 36.9478 56.4956 36.7322 56.4837 36.5211L56.6034 36.5142C56.6153 36.723 56.6339 36.9363 56.6589 37.1482L56.5398 37.1622ZM56.5878 35.8784L56.4678 35.8775C56.4695 35.6622 56.4784 35.4456 56.494 35.2342L56.6137 35.243C56.5983 35.4519 56.5895 35.6658 56.5878 35.8784ZM56.6822 34.6109L56.5634 34.5937C56.5939 34.3815 56.6322 34.1682 56.6773 33.96L56.7945 33.9853C56.7501 34.1909 56.7123 34.4014 56.6822 34.6109Z" fill="#708CD5"/>
<path d="M27.9066 48.2736C28.1385 48.2736 28.3266 48.0856 28.3266 47.8536C28.3266 47.6216 28.1385 47.4336 27.9066 47.4336C27.6746 47.4336 27.4866 47.6216 27.4866 47.8536C27.4866 48.0856 27.6746 48.2736 27.9066 48.2736Z" fill="#D3DFFF"/>
<path d="M29.5266 48.2736C29.7585 48.2736 29.9466 48.0856 29.9466 47.8536C29.9466 47.6216 29.7585 47.4336 29.5266 47.4336C29.2946 47.4336 29.1066 47.6216 29.1066 47.8536C29.1066 48.0856 29.2946 48.2736 29.5266 48.2736Z" fill="#D3DFFF"/>
<path d="M31.1466 48.2736C31.3785 48.2736 31.5666 48.0856 31.5666 47.8536C31.5666 47.6216 31.3785 47.4336 31.1466 47.4336C30.9146 47.4336 30.7266 47.6216 30.7266 47.8536C30.7266 48.0856 30.9146 48.2736 31.1466 48.2736Z" fill="#D3DFFF"/>
<path d="M9.22664 8.37236C9.21828 8.38716 9.20868 8.40268 9.19968 8.41636C9.18332 8.4168 9.16508 8.41688 9.14808 8.41624C5.46528 8.39328 6.09708 5.26072 7.86212 6.02208C8.13916 4.11992 11.1379 5.22428 9.22664 8.37236Z" fill="#D3DFFF"/>
<path d="M53.9017 36.3232H41.1383V58.5632H53.9017V36.3232Z" fill="#708CD5"/>
<path opacity="0.3" d="M53.9017 36.3232H41.1383V46.9751H53.9017V36.3232Z" fill="#1F3C88"/>
<path d="M50.3725 42.2585C50.6196 40.6821 49.5421 39.2038 47.9657 38.9566C46.3892 38.7094 44.9109 39.787 44.6637 41.3634C44.4166 42.9398 45.4941 44.4182 47.0705 44.6653C48.647 44.9125 50.1253 43.8349 50.3725 42.2585Z" fill="white"/>
<path d="M58.3467 58.553H36.6934V57.5332C36.6934 56.9771 37.1442 56.5264 37.7002 56.5264H57.3398C57.8959 56.5264 58.3467 56.9772 58.3467 57.5332V58.553Z" fill="#1F3C88"/>
<path d="M77.4595 0.897949H17.5806V41.5331H77.4595V0.897949Z" fill="#D3DFFF"/>
<path d="M75.1271 2.71631H19.9131V38.9132H75.1271V2.71631Z" fill="white"/>
<path d="M30.3722 12.0062L31.5015 14.2945C31.5314 14.355 31.589 14.3968 31.6557 14.4066L34.181 14.7735C34.349 14.7979 34.4161 15.0044 34.2945 15.1228L32.4672 16.904C32.4189 16.9511 32.3969 17.0189 32.4083 17.0853L32.8397 19.6004C32.8684 19.7677 32.6928 19.8953 32.5425 19.8163L30.2839 18.6288C30.2242 18.5975 30.1529 18.5975 30.0933 18.6288L27.8346 19.8163C27.6843 19.8953 27.5087 19.7677 27.5374 19.6004L27.9688 17.0853C27.9802 17.0189 27.9581 16.9511 27.9099 16.904L26.0826 15.1228C25.961 15.0044 26.0281 14.7979 26.1961 14.7735L28.7214 14.4066C28.7881 14.3969 28.8457 14.355 28.8756 14.2945L30.0049 12.0062C30.08 11.854 30.2971 11.854 30.3722 12.0062Z" fill="#FBC343"/>
<path d="M42.317 12.0062L43.4463 14.2945C43.4762 14.355 43.5338 14.3968 43.6005 14.4066L46.1258 14.7735C46.2938 14.7979 46.3608 15.0044 46.2393 15.1228L44.412 16.904C44.3637 16.9511 44.3417 17.0189 44.3531 17.0853L44.7844 19.6004C44.8131 19.7677 44.6375 19.8953 44.4873 19.8163L42.2286 18.6288C42.1689 18.5975 42.0976 18.5975 42.038 18.6288L39.7793 19.8163C39.6291 19.8953 39.4535 19.7677 39.4822 19.6004L39.9135 17.0853C39.9249 17.0189 39.9029 16.9511 39.8546 16.904L38.0273 15.1228C37.9057 15.0044 37.9728 14.7979 38.1408 14.7735L40.6661 14.4066C40.7328 14.3969 40.7904 14.355 40.8203 14.2945L41.9496 12.0062C42.0248 11.854 42.2418 11.854 42.317 12.0062Z" fill="#FBC343"/>
<path d="M54.2618 12.0062L55.3911 14.2945C55.421 14.355 55.4786 14.3968 55.5454 14.4066L58.0706 14.7735C58.2386 14.7979 58.3057 15.0044 58.1841 15.1228L56.3568 16.904C56.3085 16.9511 56.2865 17.0189 56.2979 17.0853L56.7293 19.6004C56.7579 19.7677 56.5823 19.8953 56.4321 19.8163L54.1734 18.6288C54.1137 18.5975 54.0425 18.5975 53.9828 18.6288L51.7241 19.8163C51.5739 19.8953 51.3983 19.7677 51.427 19.6004L51.8583 17.0853C51.8697 17.0189 51.8477 16.9511 51.7994 16.904L49.9721 15.1228C49.8505 15.0044 49.9176 14.7979 50.0856 14.7735L52.6109 14.4066C52.6776 14.3969 52.7353 14.355 52.7651 14.2945L53.8944 12.0062C53.9696 11.854 54.1867 11.854 54.2618 12.0062Z" fill="#FBC343"/>
<path d="M55.8929 6.36084H39.1471V8.24172H55.8929V6.36084Z" fill="#708CD5"/>
<path d="M55.8929 24.8262H39.1471V25.6837H55.8929V24.8262Z" fill="#D3DFFF"/>
<path d="M67.2414 35.6398H27.7988C27.4512 35.6398 27.1694 35.358 27.1694 35.0104V29.2881C27.1694 28.9405 27.4512 28.6587 27.7988 28.6587H67.2414C67.589 28.6587 67.8707 28.9405 67.8707 29.2881V35.0104C67.8707 35.358 67.589 35.6398 67.2414 35.6398Z" fill="white"/>
<path d="M67.2413 35.7197H27.7988C27.4077 35.7197 27.0895 35.4014 27.0895 35.0103V29.288C27.0895 28.8969 27.4077 28.5786 27.7988 28.5786H67.2414C67.6324 28.5786 67.9507 28.8969 67.9507 29.288V35.0103C67.9507 35.4014 67.6324 35.7197 67.2413 35.7197ZM27.7988 28.7386C27.496 28.7386 27.2495 28.985 27.2495 29.288V35.0103C27.2495 35.3133 27.496 35.5597 27.7988 35.5597H67.2414C67.5443 35.5597 67.7907 35.3133 67.7907 35.0103V29.288C67.7907 28.985 67.5443 28.7386 67.2414 28.7386H27.7988Z" fill="#708CD5"/>
<path d="M65.76 30.5757H29.28V30.7357H65.76V30.5757Z" fill="#708CD5"/>
<path d="M56 32.0156H29.28V32.1756H56V32.0156Z" fill="#708CD5"/>
<path d="M50.0267 33.5625H29.28V33.7225H50.0267V33.5625Z" fill="#708CD5"/>
<path d="M12.4262 55.4674L12.2447 58.5544H7.51367L9.46575 57.0109L10.12 55.3999L12.4262 55.4674Z" fill="#D3DFFF"/>
<path d="M9.49958 56.935L9.43542 57.0815L10.6897 57.6306L10.7538 57.484L9.49958 56.935Z" fill="#102048"/>
<path d="M17.84 35.5599L17.624 36.4399L16.5808 40.7055L12.8544 55.9215H9.3136L12.392 37.4479L12.7184 35.4927L16.3968 35.5407L17.84 35.5599Z" fill="#1F3C88"/>
<path d="M17.7152 55.4673L17.8968 58.5543H22.6278L20.6757 57.0108L20.2671 55.4219L17.7152 55.4673Z" fill="#D3DFFF"/>
<path d="M20.6464 56.9361L19.3838 57.4312L19.4422 57.5802L20.7049 57.0852L20.6464 56.9361Z" fill="#102048"/>
<path d="M20.8895 55.9535H17.1215L16.5807 40.7055L16.4367 36.6687L16.3967 35.5407L16.3951 35.4927L18.9903 35.5199L20.6175 35.5375L20.8895 55.9535Z" fill="#1F3C88"/>
<path d="M15.7052 44.9352L15.548 44.9049L16.6249 39.3054L18.0109 39.0283L18.0423 39.1852L16.7617 39.4413L15.7052 44.9352Z" fill="white"/>
<path d="M16.1993 25.3691L21.1627 26.3073L20.88 27.5199L21.337 35.4122C21.341 35.856 20.9812 36.2172 20.5375 36.215L13.1336 36.1778C12.6835 36.1755 12.3249 35.8007 12.3426 35.3509L12.2134 28.2266L16.1993 25.3691Z" fill="#EE6F57"/>
<path d="M21.9262 24.7233C21.5025 24.4509 21.6236 23.1496 21.2906 23.1647C20.9577 23.1798 20.9275 24.0878 20.9728 24.2694C21.0182 24.451 21.109 25.0108 21.109 25.0108L21.9262 24.7233Z" fill="#FFBC96"/>
<path d="M18.96 29.0397L23.76 30.0797C25.04 30.3197 25.9363 30.3751 26.7988 29.7168L19.9893 26.3877L18.96 29.0397Z" fill="#EE6F57"/>
<path d="M10.3884 32.0425L12.9003 29.5154L16.1992 25.3691L12.8926 26.1896C12.4244 26.3057 12.0021 26.5603 11.6807 26.92L7.44879 31.6579C7.10363 32.133 7.12359 32.8247 7.62715 33.3063L9.80203 34.7405L11.4171 32.837L10.3884 32.0425Z" fill="#EE6F57"/>
<path d="M21.9263 24.7235C20.6854 24.0577 20.4433 24.0274 20.0196 24.4814C19.7607 24.7588 19.547 25.1492 19.4613 25.48C19.3941 25.74 19.5005 26.0143 19.7138 26.1774L19.9893 26.3881L21.4235 27.2977L22.8079 25.2653C22.4486 25.0298 22.1415 24.839 21.9263 24.7235Z" fill="#FFBC96"/>
<path d="M26.6994 27.9989C25.722 27.2875 23.9823 26.0347 22.808 25.2651L21.4236 27.2975L25.4417 29.8461C26.0149 30.2097 26.7773 29.9826 27.0582 29.3646C27.2779 28.8814 27.1286 28.3113 26.6994 27.9989Z" fill="#EE6F57"/>
<path d="M13.884 33.5027C15.034 32.8671 13.7781 32.8293 12.2497 33.48L11.417 32.8369L9.802 34.7404L10.8744 35.4475C11.2288 35.6812 11.6776 35.717 12.0645 35.542C12.5201 35.336 13.0923 35.0852 13.2787 35.0386C13.7024 34.9327 14.6255 34.8873 14.3985 34.6149L14.0051 34.509C14.0051 34.509 14.7466 34.3123 14.6406 34.1458C14.5347 33.9794 13.7857 34.0172 13.7857 34.0172C13.7857 34.0172 14.7542 33.707 14.7768 33.4876C14.7946 33.3159 13.884 33.5027 13.884 33.5027Z" fill="#FFBC96"/>
<path d="M12.7189 33.8678C12.7013 33.8678 12.6852 33.8561 12.6803 33.8384C12.6744 33.817 12.687 33.7952 12.7082 33.7892L14.0853 33.411C14.1069 33.4055 14.1286 33.4178 14.1345 33.4389C14.1403 33.4603 14.1278 33.4822 14.1065 33.4881L12.7295 33.8664C12.7259 33.8673 12.7224 33.8678 12.7189 33.8678Z" fill="#E8947D"/>
<path d="M12.8096 34.7454C12.7904 34.7454 12.7734 34.7315 12.7702 34.712C12.7666 34.6901 12.7814 34.6695 12.8032 34.6659L13.9986 34.4692C14.0201 34.4661 14.041 34.4804 14.0446 34.5021C14.0482 34.524 14.0334 34.5447 14.0116 34.5482L12.8161 34.7449C12.814 34.7453 12.8118 34.7454 12.8096 34.7454Z" fill="#E8947D"/>
<path d="M12.855 34.2461C12.8358 34.2461 12.8189 34.2322 12.8156 34.2127C12.8119 34.191 12.8267 34.1703 12.8485 34.1666L13.938 33.9849C13.9596 33.9814 13.9804 33.9961 13.984 34.0178C13.9877 34.0396 13.9729 34.0602 13.9511 34.0639L12.8616 34.2456C12.8594 34.246 12.8572 34.2461 12.855 34.2461Z" fill="#E8947D"/>
<path d="M24.3199 29.3265C24.3084 29.3265 24.2966 29.3232 24.2863 29.3162L21.3898 27.3471C21.3624 27.3283 21.3553 27.2912 21.3739 27.2636C21.3925 27.2363 21.4297 27.229 21.4573 27.2477L24.3538 29.2168C24.3812 29.2356 24.3883 29.2727 24.3696 29.3002C24.3581 29.3173 24.3392 29.3265 24.3199 29.3265Z" fill="#6F3428"/>
<path d="M21.1199 32.4466C21.0885 32.4466 21.0621 32.4221 21.0601 32.3903L20.7935 28.1236C20.7914 28.0905 20.8166 28.0621 20.8496 28.06C20.8816 28.0557 20.9112 28.0831 20.9132 28.1161L21.1799 32.3828C21.182 32.4159 21.1568 32.4444 21.1238 32.4464C21.1225 32.4466 21.1212 32.4466 21.1199 32.4466Z" fill="#6F3428"/>
<path d="M12.32 31.6465C12.2874 31.6465 12.2607 31.6204 12.26 31.5876L12.2067 28.7076C12.206 28.6745 12.2324 28.6471 12.2656 28.6465C12.2959 28.6453 12.326 28.6722 12.3267 28.7054L12.38 31.5854C12.3807 31.6186 12.3543 31.6459 12.3211 31.6465C12.3208 31.6465 12.3204 31.6465 12.32 31.6465Z" fill="#6F3428"/>
<path d="M9.17322 32.26C9.14354 32.26 9.11774 32.2379 9.11378 32.2076C9.10954 32.1748 9.13278 32.1447 9.16558 32.1404L10.3807 31.9829C10.4137 31.9788 10.4435 32.0018 10.4479 32.0348C10.4521 32.0676 10.4289 32.0977 10.3961 32.102L9.18106 32.2595C9.17838 32.2598 9.17578 32.26 9.17322 32.26Z" fill="#6F3428"/>
<path d="M16.7081 27.7281C16.2998 27.7281 15.8775 27.5248 15.4522 27.1233C15.428 27.1005 15.427 27.0626 15.4498 27.0385C15.4724 27.0144 15.5106 27.0131 15.5345 27.0361C15.9499 27.4281 16.3568 27.6223 16.7448 27.6075C17.1243 27.595 17.5048 27.3856 17.876 26.9855C17.8985 26.9612 17.9365 26.9598 17.9608 26.9823C17.9851 27.0049 17.9866 27.0428 17.964 27.0671C17.5702 27.4915 17.1614 27.7137 16.7488 27.7275C16.7353 27.7279 16.7217 27.7281 16.7081 27.7281Z" fill="#6F3428"/>
<path d="M17.6779 23.7847V25.6163C17.6779 26.1741 17.2257 26.6263 16.6679 26.6263C16.1087 26.6263 15.6565 26.1741 15.6565 25.6163V23.7847H17.6779Z" fill="#FFBC96"/>
<path d="M17.6779 24.4009V25.612C16.8063 25.5093 16.2799 24.8588 15.9418 24.1299L17.6779 24.4009Z" fill="#E8947D"/>
<path d="M18.2367 23.8862C18.1999 24.3326 18.0543 24.7022 17.6783 24.8286C17.6287 24.8462 17.5775 24.859 17.5199 24.867C16.8767 24.9582 16.4223 24.7406 16.1119 24.4558C15.9567 24.3134 15.8367 24.155 15.7471 24.011C15.7119 23.955 15.6815 23.9006 15.6559 23.851C15.5919 23.7262 15.5535 23.627 15.5375 23.579C15.5295 23.5582 15.5263 23.547 15.5263 23.547L15.5199 23.067L15.5023 21.907L17.1311 21.3838L18.1199 21.9998C18.1231 22.0958 18.1311 22.203 18.1439 22.3214C18.1743 22.6302 18.2255 23.0014 18.2431 23.3662C18.2511 23.5438 18.2527 23.7214 18.2367 23.8862Z" fill="#FFBC96"/>
<path d="M15.7758 23.5236C15.6954 23.0768 15.6872 22.6551 15.7996 22.2754C16.6477 21.7601 17.747 22.3806 18.3161 22.3237C18.4102 22.3143 18.4961 22.2604 18.5448 22.1793C19.5152 20.5641 16.4955 19.7236 15.0744 21.6572C14.3627 21.9169 14.5989 22.8698 15.217 23.6544L15.7758 23.5236Z" fill="#102048"/>
<path d="M15.7115 24.0251C15.9497 23.9509 16.0771 23.6799 15.9962 23.4198C15.9152 23.1597 15.6564 23.0089 15.4182 23.083C15.18 23.1572 15.0526 23.4282 15.1336 23.6883C15.2145 23.9484 15.4733 24.0992 15.7115 24.0251Z" fill="#FFBC96"/>
<path d="M17.7155 23.1649C17.7291 23.2341 17.7867 23.281 17.8442 23.2697C17.9018 23.2584 17.9374 23.1932 17.9239 23.1241C17.9103 23.0549 17.8527 23.008 17.7952 23.0193C17.7376 23.0305 17.702 23.0957 17.7155 23.1649Z" fill="#102048"/>
<path d="M16.8846 23.2005C16.8982 23.2697 16.9557 23.3166 17.0133 23.3053C17.0708 23.2941 17.1065 23.2289 17.0929 23.1597C17.0794 23.0905 17.0217 23.0436 16.9642 23.0549C16.9067 23.0662 16.871 23.1314 16.8846 23.2005Z" fill="#102048"/>
<path d="M17.4525 23.8253C17.432 23.8253 17.4146 23.8096 17.4127 23.7887C17.4109 23.7668 17.4271 23.7474 17.4491 23.7455C17.4506 23.7453 17.5986 23.7313 17.6772 23.6457C17.6805 23.6419 17.6839 23.6366 17.683 23.6253C17.677 23.5561 17.5437 23.4292 17.461 23.3656C17.4435 23.3521 17.4403 23.3269 17.4537 23.3095C17.4673 23.2919 17.4922 23.2889 17.5099 23.3022C17.5346 23.3213 17.7517 23.492 17.7626 23.6184C17.7653 23.6497 17.7561 23.6779 17.7361 23.6997C17.6362 23.8086 17.4633 23.8245 17.456 23.8251C17.4548 23.8252 17.4537 23.8253 17.4525 23.8253Z" fill="#E8947D"/>
<path d="M17.7057 24.0356C17.5952 24.429 17.2717 24.3283 17.0978 24.048L17.7057 24.0356Z" fill="white"/>
<path d="M17.5478 22.7485C17.5409 22.8625 17.704 22.8319 17.768 22.8323C17.9001 22.8333 18.026 22.7912 18.0263 22.7521C18.0266 22.7129 17.9197 22.6804 17.7876 22.6794C17.6555 22.6784 17.5528 22.6664 17.5478 22.7485Z" fill="#102048"/>
<path d="M17.1216 22.7362C17.1534 22.8601 16.9744 22.8775 16.9067 22.8982C16.7673 22.9408 16.6252 22.9339 16.6165 22.8908C16.6078 22.8476 16.7138 22.778 16.8533 22.7354C16.9928 22.6927 17.0987 22.6472 17.1216 22.7362Z" fill="#102048"/>
<path opacity="0.3" d="M16.8866 23.7228C16.8866 23.8682 16.7687 23.9861 16.6233 23.9861C16.4779 23.9861 16.36 23.8682 16.36 23.7228C16.36 23.5774 16.4779 23.4595 16.6233 23.4595C16.7687 23.4595 16.8866 23.5774 16.8866 23.7228Z" fill="#EE6F57"/>
<path opacity="0.3" d="M18.2367 23.8862C18.1087 23.8686 18.0095 23.7598 18.0095 23.627C18.0095 23.4926 18.1119 23.3806 18.2431 23.3662C18.2511 23.5438 18.2527 23.7214 18.2367 23.8862Z" fill="#EE6F57"/>
<path d="M15.63 23.7299C15.6079 23.7299 15.59 23.712 15.59 23.6899C15.59 23.5857 15.5655 23.5108 15.5192 23.4733C15.4734 23.4363 15.4118 23.4396 15.3684 23.4491C15.3472 23.4531 15.3256 23.44 15.3208 23.4183C15.3162 23.3967 15.33 23.3755 15.3516 23.3707C15.4383 23.3523 15.5138 23.3661 15.5694 23.4111C15.6362 23.4651 15.67 23.5589 15.67 23.6899C15.67 23.712 15.6521 23.7299 15.63 23.7299Z" fill="#102048"/>
<path d="M7.72012 22.0702C8.38992 21.3475 8.79996 20.3806 8.79996 19.3176C8.79996 17.0803 6.98628 15.2666 4.749 15.2666C2.51172 15.2666 0.697998 17.0803 0.697998 19.3176C0.697998 21.5548 2.51168 23.3685 4.749 23.3685C5.32376 23.3685 5.87016 23.2481 6.36544 23.0323L8.5276 24.1199L7.72012 22.0702Z" fill="#C6EAE9"/>
<path d="M4.58979 20.7909L3.18299 18.8355C3.13135 18.7638 3.14767 18.6638 3.21939 18.6122C3.29103 18.5603 3.39111 18.5769 3.44267 18.6486L4.55011 20.1879L6.11455 17.272C6.15643 17.1939 6.25331 17.1648 6.33119 17.2066C6.40907 17.2484 6.43831 17.3454 6.39659 17.4232L4.58979 20.7909Z" fill="white"/>
<path d="M79.7996 43.3013L77.0758 44.5724L77.4632 55.696L80.1034 56.059L79.7996 43.3013Z" fill="#FFBC96"/>
<path d="M77.4632 55.6958L77.4996 56.7386L75.1389 58.5545H80.1629L80.1034 56.0588L77.4632 55.6958Z" fill="#D3DFFF"/>
<path d="M77.54 56.6738L77.46 56.8125L78.3469 57.3239L78.4269 57.1852L77.54 56.6738Z" fill="#102048"/>
<path d="M81.3886 45.5856L81.1616 44.3599L78.0292 45.3586L78.334 46.8551C78.4581 47.4644 78.8286 47.9953 79.3577 48.3221C79.8184 48.6067 80.3663 48.7158 80.9009 48.6294L87.7015 47.5303L88.1784 44.9469L81.3886 45.5856Z" fill="#FFBC96"/>
<path d="M80.5341 48.7213C79.9071 48.7213 79.3407 48.4416 78.8794 47.8994C78.4658 47.4135 78.2847 46.8966 78.2772 46.8749C78.2664 46.8436 78.283 46.8094 78.3144 46.7986C78.3451 46.788 78.3799 46.8044 78.3907 46.8358C78.3977 46.8562 79.1166 48.8757 80.8907 48.5704C80.9243 48.5658 80.9544 48.5869 80.96 48.6194C80.9655 48.6522 80.9436 48.6832 80.9109 48.6888C80.7832 48.7105 80.6575 48.7213 80.5341 48.7213Z" fill="#E8947D"/>
<path d="M90.9674 49.3991L90.5588 44.7231L88.1785 44.947L87.7015 47.5304L89.0607 47.3108L90.9674 49.3991Z" fill="#D3DFFF"/>
<path d="M89.4075 46.1225L88.983 47.2827L89.1333 47.3377L89.5578 46.1775L89.4075 46.1225Z" fill="#102048"/>
<path d="M80.8211 35.4168C82.1149 37.0965 81.5248 38.6854 81.1162 40.5921L82.3467 45.5069L76.0771 46.9931L75.6686 36.2113L78.2108 34.8267L80.8211 35.4168Z" fill="#EE6F57"/>
<path d="M76.5249 24.5581C76.5249 24.5581 75.7981 24.9953 75.9561 25.1707C76.1141 25.3462 76.4452 25.4075 76.4452 25.4075L76.5249 24.5581Z" fill="#E8947D"/>
<path d="M76.9489 25.0685L76.7697 28.4902L78.6483 28.5886L78.8275 25.1669L76.9489 25.0685Z" fill="#FFBC96"/>
<path d="M78.4598 26.0771C78.072 26.6791 77.5216 27.1093 76.8278 27.3447L76.9187 25.6064L78.4598 26.0771Z" fill="#E8947D"/>
<path d="M76.5884 23.8488C76.5884 23.8488 75.7929 26.2711 76.8746 26.4509C77.9564 26.6307 78.4606 26.0763 78.4606 26.0763L78.8241 24.5114L78.0691 23.4688L76.5884 23.8488Z" fill="#FFBC96"/>
<path d="M78.351 25.1821C78.2282 25.397 77.9766 25.4844 77.7891 25.3772C77.6016 25.27 77.5492 25.009 77.672 24.7941C77.7948 24.5792 78.0464 24.4918 78.2339 24.599C78.4214 24.7061 78.4738 24.9672 78.351 25.1821Z" fill="#FFBC96"/>
<path d="M77.8746 24.9985C77.6616 24.7513 77.5433 24.4073 77.4776 24.0097C74.8909 24.8423 75.5621 22.1055 76.9055 22.8358C78.8916 21.5406 80.8424 24.4498 78.8092 25.8041C78.5281 25.2474 78.2142 25.0012 77.8746 24.9985Z" fill="#102048"/>
<path d="M78.9932 22.9896C80.3245 22.1793 82.4379 23.2021 81.1813 26.8048C79.1007 25.3619 80.0537 23.7737 78.9932 22.9896Z" fill="#102048"/>
<path d="M68.1578 16.7815L68.9921 19.264C69.0145 19.3304 69.0681 19.3817 69.1355 19.401L71.6601 20.1233C71.8302 20.172 71.8704 20.3948 71.7279 20.4998L69.6174 22.0558C69.5608 22.0975 69.5284 22.1644 69.5309 22.2347L69.6213 24.8497C69.6274 25.0261 69.4287 25.133 69.2848 25.0308L67.1442 23.5104C67.0872 23.47 67.014 23.46 66.9483 23.4838L64.4777 24.3781C64.3116 24.4382 64.1486 24.2818 64.2019 24.1134L64.9913 21.6186C65.0125 21.5515 64.9992 21.4782 64.9558 21.4228L63.3403 19.3612C63.2312 19.222 63.3294 19.0181 63.5062 19.0166L66.1337 18.9934C66.2037 18.9927 66.269 18.9578 66.3082 18.8998L67.7794 16.7297C67.8784 16.5839 68.1017 16.6144 68.1578 16.7815Z" fill="#FBC343"/>
<path d="M71.5034 19.1419C71.2243 19.0453 71.7326 20.8672 71.8756 21.3634C71.897 21.4376 71.8696 21.517 71.8071 21.5624C71.7168 21.628 71.5893 21.5988 71.5372 21.5001C71.3208 21.0896 70.8036 20.156 70.6239 20.2495C70.4251 20.3542 70.9154 21.7012 71.5877 23.3058L73.2022 22.0851C72.3472 20.4812 71.6246 19.1838 71.5034 19.1419Z" fill="#FFBC96"/>
<path d="M76.4116 28.2652C76.4116 28.2652 74.6238 24.7515 73.2022 22.085L71.5876 23.3057C72.52 25.9198 73.88 29.3598 73.88 29.3598L76.4116 28.2652Z" fill="#102048"/>
<path d="M65.1818 23.6473C65.091 23.7835 65.7606 24.7596 65.7606 24.7596C64.7244 24.2846 63.7933 23.8886 63.4072 23.7262C63.3114 23.686 63.2016 23.7565 63.2053 23.8604C63.2494 25.1216 65.3861 26.2917 65.3861 26.2917L65.9852 27.2L67.3152 25.2561C66.264 24.2145 65.3354 23.417 65.1818 23.6473Z" fill="#FFBC96"/>
<path d="M79.6989 27.6797C79.1867 27.3901 78.5282 27.2393 77.7014 27.2331C77.1159 27.2287 76.5323 27.3058 75.9622 27.4393L70.584 28.811C70.2008 28.3156 68.6579 26.5865 67.3151 25.2559L65.9851 27.1998L68.4016 30.864C68.6988 31.3147 69.1315 31.6592 69.6373 31.8479C70.1209 32.0283 70.6478 32.0576 71.1483 31.9318L74.7152 31.0355L75.6685 36.2107L80.8211 35.4163C81.5234 31.4425 80.9152 28.3675 79.6989 27.6797Z" fill="#1F3C88"/>
<path d="M88.0178 27.8304C87.348 27.1078 86.938 26.1409 86.938 25.0778C86.938 22.8405 88.7517 21.0269 90.989 21.0269C93.2262 21.0269 95.0399 22.8405 95.0399 25.0778C95.0399 27.3151 93.2262 29.1288 90.989 29.1288C90.4142 29.1288 89.8678 29.0083 89.3725 28.7925L87.2104 29.8802L88.0178 27.8304Z" fill="#C6EAE9"/>
<path d="M90.7398 26.9817L89.3329 25.0263C89.2812 24.9546 89.2976 24.8546 89.3693 24.8031C89.4412 24.7515 89.541 24.7678 89.5926 24.8395L90.7001 26.3787L92.2646 23.4629C92.3062 23.385 92.4032 23.3556 92.4812 23.3975C92.559 23.4393 92.5884 23.5363 92.5465 23.6141L90.7398 26.9817Z" fill="white"/>
<path d="M95.4714 58.48H0.528687V58.64H95.4714V58.48Z" fill="#102048"/>
</svg>
