<svg width="16" height="16" viewBox="0 0 16 16" fill="none" xmlns="http://www.w3.org/2000/svg">
<mask id="mask0_840_22649" style="mask-type:alpha" maskUnits="userSpaceOnUse" x="0" y="0" width="16" height="16">
<rect width="16" height="16" fill="#D9D9D9"/>
</mask>
<g mask="url(#mask0_840_22649)">
<path d="M6.13366 10.3997L8.00033 8.99967L9.83366 10.3997L9.13366 8.13301L11.0003 6.66634H8.73366L8.00033 4.39967L7.26699 6.66634H5.00033L6.83366 8.13301L6.13366 10.3997ZM8.00033 14.6663C6.45588 14.2775 5.18088 13.3913 4.17533 12.008C3.16977 10.6247 2.66699 9.08856 2.66699 7.39967V3.33301L8.00033 1.33301L13.3337 3.33301V7.39967C13.3337 9.08856 12.8309 10.6247 11.8253 12.008C10.8198 13.3913 9.54477 14.2775 8.00033 14.6663Z" fill="white"/>
</g>
</svg>
